<?xml version="1.0" standalone="no"?>
<!DOCTYPE svg PUBLIC "-//W3C//DTD SVG 20010904//EN"
 "http://www.w3.org/TR/2001/REC-SVG-20010904/DTD/svg10.dtd">
<svg version="1.0" xmlns="http://www.w3.org/2000/svg"
 width="100.000000pt" height="25.000000pt" viewBox="0 0 100.000000 25.000000"
 preserveAspectRatio="xMidYMid meet">

<g transform="translate(0.000000,25.000000) scale(0.100000,-0.100000)"
fill="#000000" stroke="none">
<path d="M0 165 c0 -78 2 -85 20 -85 16 0 20 7 20 36 0 34 1 35 33 32 28 -3
32 -7 35 -35 2 -25 8 -33 23 -33 17 0 19 8 19 85 0 77 -2 85 -19 85 -15 0 -21
-8 -23 -32 -3 -29 -7 -33 -35 -36 -32 -3 -33 -2 -33 32 0 29 -4 36 -20 36 -18
0 -20 -7 -20 -85z"/>
<path d="M199 221 c-37 -38 -39 -82 -4 -116 33 -34 55 -32 55 3 0 15 -6 34
-12 40 -10 10 -10 17 0 32 15 24 16 70 1 70 -6 0 -24 -13 -40 -29z"/>
<path d="M270 221 c0 -17 5 -33 10 -36 6 -3 10 -15 10 -26 0 -10 -4 -19 -10
-19 -5 0 -10 -13 -10 -30 0 -37 21 -40 55 -5 17 16 25 35 25 60 0 25 -8 44
-25 60 -33 34 -55 32 -55 -4z"/>
<path d="M380 165 l0 -85 41 0 c22 0 49 5 60 10 20 11 26 54 9 65 -7 4 -7 12
0 25 21 39 -13 70 -74 70 l-36 0 0 -85z m75 35 c0 -8 -8 -16 -17 -18 -13 -2
-18 3 -18 18 0 15 5 20 18 18 9 -2 17 -10 17 -18z m0 -70 c0 -8 -8 -16 -17
-18 -13 -2 -18 3 -18 18 0 15 5 20 18 18 9 -2 17 -10 17 -18z"/>
<path d="M530 165 l0 -85 41 0 c56 0 79 14 79 50 0 17 -4 30 -10 30 -6 0 -5
11 2 26 11 23 10 29 -11 45 -14 11 -39 19 -62 19 l-39 0 0 -85z m75 34 c0 -7
-8 -15 -17 -17 -18 -3 -25 18 -11 32 10 10 28 1 28 -15z m0 -69 c0 -8 -8 -16
-17 -18 -13 -2 -18 3 -18 18 0 15 5 20 18 18 9 -2 17 -10 17 -18z"/>
<path d="M684 206 c16 -28 26 -59 26 -85 0 -34 3 -41 20 -41 16 0 20 7 20 30
0 17 14 55 31 85 l31 55 -24 0 c-17 0 -29 -8 -37 -27 l-13 -28 -14 28 c-10 19
-22 27 -40 27 l-26 0 26 -44z"/>
<path d="M911 114 c0 -11 3 -14 6 -6 3 7 2 16 -1 19 -3 4 -6 -2 -5 -13z"/>
<path d="M811 99 l-23 -19 22 0 c12 0 33 8 46 19 l24 19 -23 0 c-13 0 -33 -9
-46 -19z"/>
</g>
</svg>
